<?xml version="1.0" encoding="UTF-8"?>
<svg xmlns="http://www.w3.org/2000/svg" viewBox="0 0 504 580" width="504" height="580">
<defs>
  <linearGradient id="gold" x1="10%" y1="0%" x2="90%" y2="100%">
    <stop offset="0%"   stop-color="#D4B875"/>
    <stop offset="40%"  stop-color="#B8944F"/>
    <stop offset="75%"  stop-color="#9A7A38"/>
    <stop offset="100%" stop-color="#C4A060"/>
  </linearGradient>
  <linearGradient id="tg" x1="0%" y1="0%" x2="0%" y2="100%">
    <stop offset="0%"   stop-color="#D8BC80"/>
    <stop offset="50%"  stop-color="#B8944F"/>
    <stop offset="100%" stop-color="#C9A96E"/>
  </linearGradient>
</defs>
<rect width="504" height="580" fill="#1A1A1A"/>
<g transform="translate(4,-10)" fill="url(#gold)" fill-rule="evenodd">
  <path d="M110.0,68.3 L110.0,138.0 L110.3,138.7 L111.0,138.7 L111.3,139.0 L117.0,139.0 L117.7,138.7 L117.7,133.0 L118.0,130.7 L118.7,129.7 L118.7,124.0 L119.0,123.0 L119.7,122.0 L119.7,118.0 L120.0,117.0 L120.7,116.3 L120.7,114.0 L121.7,112.3 L121.7,110.3 L122.7,108.7 L122.7,107.0 L123.7,105.3 L123.7,104.3 L124.7,102.0 L126.0,99.7 L127.7,97.7 L128.7,95.3 L129.7,94.7 L131.0,92.7 L135.0,88.7 L137.3,86.7 L138.7,85.7 L139.3,85.7 L140.3,84.7 L141.0,84.7 L141.7,84.0 L143.0,83.7 L143.7,83.0 L144.3,82.7 L145.3,82.7 L146.3,81.7 L147.3,81.7 L148.0,81.0 L148.7,80.7 L150.7,80.7 L151.7,80.0 L152.7,79.7 L155.0,79.7 L156.0,79.0 L157.3,78.7 L162.7,78.7 L164.3,78.0 L169.3,78.0 L170.0,78.7 L170.3,79.3 L170.7,80.0 L170.7,82.7 L170.7,130.3 L170.7,131.3 L170.7,175.0 L170.7,186.3 L170.7,228.7 L170.7,230.7 L170.3,235.7 L170.3,249.3 L170.3,261.3 L171.0,296.0 L171.0,297.0 L170.7,297.3 L170.7,298.3 L171.0,301.0 L170.7,305.3 L171.0,311.7 L170.7,332.0 L169.7,333.0 L168.3,333.0 L167.7,333.7 L166.7,334.0 L163.3,334.0 L162.0,334.7 L160.3,335.0 L155.3,335.0 L154.0,335.7 L151.7,336.0 L146.0,336.0 L144.0,337.0 L144.0,342.7 L145.0,343.7 L384.3,343.7 L385.0,343.0 L385.3,342.3 L385.7,341.7 L385.3,329.7 L385.7,319.3 L385.7,315.3 L385.0,294.0 L385.0,293.3 L385.3,273.3 L384.7,272.7 L383.7,272.3 L379.7,272.0 L378.0,272.7 L377.7,275.7 L377.7,278.7 L377.0,281.3 L377.0,287.3 L376.7,288.7 L376.0,289.7 L376.0,292.7 L375.0,294.3 L375.0,296.7 L374.0,298.3 L374.0,300.0 L373.0,301.7 L373.0,303.7 L372.7,304.7 L372.0,305.3 L372.0,306.3 L371.7,307.0 L371.0,307.7 L371.0,308.3 L370.0,309.3 L369.7,310.3 L368.0,312.3 L367.7,313.3 L367.0,314.3 L366.0,315.3 L364.0,317.7 L363.7,318.0 L362.3,319.0 L361.7,319.0 L361.0,318.7 L360.7,318.0 L358.7,316.3 L357.3,315.7 L355.7,314.0 L354.3,313.0 L353.7,313.0 L352.3,312.0 L351.0,310.7 L349.7,310.0 L348.3,309.0 L346.3,307.0 L345.3,306.7 L344.0,305.7 L343.7,305.3 L341.3,303.0 L339.7,302.0 L338.3,301.0 L337.7,300.0 L336.0,299.0 L334.3,297.7 L332.7,296.0 L328.3,293.0 L326.3,291.0 L325.3,290.7 L323.7,289.0 L320.7,287.0 L318.7,285.0 L318.3,277.0 L318.0,269.3 L317.7,241.0 L318.0,232.0 L318.0,228.3 L318.0,222.7 L317.7,218.7 L317.7,218.0 L318.0,217.3 L318.3,217.0 L319.0,216.7 L319.7,216.7 L325.7,217.0 L327.3,217.7 L331.7,217.7 L332.3,218.0 L333.0,218.7 L334.3,218.7 L335.3,219.7 L336.3,219.7 L337.3,220.7 L338.0,220.7 L338.7,221.0 L340.3,222.7 L340.7,222.7 L342.0,224.0 L344.0,226.3 L344.0,227.0 L345.7,229.3 L346.0,230.0 L346.0,230.7 L346.7,231.3 L347.0,232.0 L347.0,233.7 L347.7,234.7 L348.0,235.7 L348.0,238.7 L348.7,240.3 L349.0,242.3 L349.0,245.0 L349.7,245.7 L355.7,245.3 L355.7,178.7 L355.0,178.0 L349.0,178.3 L348.7,179.0 L348.7,184.0 L348.0,185.3 L348.0,188.0 L347.7,189.0 L347.0,189.7 L347.0,191.3 L346.7,192.0 L346.0,192.7 L345.7,194.0 L345.0,194.7 L345.0,195.3 L344.0,196.3 L343.7,197.3 L342.0,199.0 L339.3,202.0 L338.0,203.0 L337.0,203.0 L335.3,204.0 L334.3,205.0 L333.3,205.0 L332.3,206.0 L330.0,206.0 L329.0,206.7 L328.0,207.0 L322.7,207.0 L321.0,207.7 L318.7,207.7 L318.0,207.0 L317.7,189.3 L317.7,162.7 L317.0,162.0 L316.7,160.7 L316.7,158.3 L315.7,156.7 L315.7,155.3 L314.7,153.7 L314.7,152.3 L313.7,151.0 L313.7,150.0 L312.7,148.7 L312.7,147.7 L312.3,147.0 L311.7,146.3 L311.7,145.7 L310.7,144.0 L309.7,143.0 L309.7,142.3 L308.7,141.0 L307.3,139.7 L306.7,138.3 L303.7,135.0 L300.3,132.0 L297.7,130.0 L297.3,130.0 L296.7,129.0 L296.0,128.7 L293.7,127.0 L292.7,127.0 L291.7,126.0 L290.7,125.7 L289.7,125.0 L288.7,125.0 L287.7,124.0 L286.7,124.0 L285.3,123.0 L283.7,123.0 L282.3,122.0 L280.3,122.0 L278.3,121.0 L273.3,121.0 L270.7,120.3 L265.3,120.3 L262.7,121.0 L257.0,121.0 L256.3,121.7 L255.3,122.0 L253.3,122.0 L252.3,123.0 L250.7,123.0 L249.3,124.0 L248.3,124.0 L247.3,125.0 L246.3,125.0 L244.3,126.7 L243.0,127.0 L242.0,128.0 L241.3,128.0 L240.0,129.0 L239.0,130.0 L237.0,131.0 L236.3,132.0 L231.0,137.0 L229.0,139.3 L227.0,142.0 L226.0,143.3 L226.0,144.0 L225.0,145.0 L225.0,145.7 L224.0,147.3 L223.0,148.3 L223.0,149.3 L222.0,150.7 L222.0,151.7 L221.0,153.0 L221.0,154.3 L220.0,156.0 L220.0,158.7 L219.0,161.0 L219.0,164.0 L218.3,165.7 L218.0,188.0 L218.0,190.3 L218.3,195.7 L218.3,223.3 L218.0,243.0 L218.3,247.0 L218.3,249.7 L218.3,266.7 L218.0,287.7 L217.0,289.0 L216.0,290.3 L212.0,294.7 L209.3,297.0 L209.0,297.3 L208.3,298.0 L208.0,298.3 L208.0,298.7 L207.7,299.0 L207.3,299.0 L207.0,299.3 L206.3,300.0 L206.0,300.3 L203.0,304.0 L201.3,305.3 L200.7,304.7 L200.7,295.7 L200.0,293.7 L199.7,291.7 L199.7,287.3 L199.7,278.7 L200.0,276.0 L200.0,271.3 L200.0,268.0 L200.0,237.0 L200.0,236.3 L200.0,187.7 L200.0,185.7 L200.0,182.3 L200.0,181.7 L200.0,158.7 L200.0,156.3 L199.7,78.7 L200.7,77.7 L211.3,77.7 L212.3,78.0 L213.3,78.7 L218.3,78.7 L219.7,79.0 L220.7,79.7 L223.3,79.7 L225.3,80.7 L228.0,80.7 L229.0,81.0 L229.7,81.7 L231.3,81.7 L232.7,82.7 L233.3,82.7 L234.0,83.0 L234.7,83.7 L236.0,84.0 L236.7,84.7 L237.3,84.7 L238.3,85.7 L239.3,85.7 L240.3,86.7 L241.0,86.7 L242.3,87.7 L245.0,89.7 L249.7,94.3 L252.0,97.7 L252.0,98.3 L253.7,100.3 L254.7,102.0 L255.0,102.7 L255.0,103.3 L255.7,104.0 L256.0,104.7 L256.0,106.0 L256.7,106.7 L257.0,107.3 L257.0,109.3 L258.0,111.0 L258.0,112.7 L259.0,113.7 L269.7,113.7 L270.7,112.7 L270.7,68.7 L270.0,68.0 Z M262.3,127.7 L275.0,127.7 L276.0,128.0 L277.0,128.7 L279.7,128.7 L281.3,129.7 L282.7,129.7 L283.3,130.0 L284.0,130.7 L285.3,130.7 L286.3,131.7 L287.3,132.0 L288.3,132.7 L289.3,132.7 L290.3,133.7 L291.0,133.7 L291.7,134.0 L292.0,134.7 L293.0,135.0 L294.0,135.7 L295.3,136.7 L296.0,137.7 L302.7,144.0 L303.0,145.0 L305.0,147.3 L305.0,148.0 L306.3,150.0 L307.0,151.0 L307.0,152.0 L307.7,152.7 L308.0,153.3 L308.0,154.7 L308.7,155.3 L309.0,156.3 L309.0,158.3 L310.0,160.7 L310.0,165.0 L310.7,167.7 L311.0,175.7 L311.0,178.0 L310.7,181.0 L311.0,190.7 L311.0,238.7 L311.0,240.0 L310.7,256.3 L311.0,277.3 L310.3,278.0 L309.3,278.0 L308.7,277.0 L306.3,275.0 L304.7,274.0 L303.3,273.0 L302.7,272.0 L299.7,270.0 L297.3,268.0 L294.7,265.0 L292.3,263.0 L291.3,262.7 L289.7,261.0 L287.3,259.0 L286.0,258.7 L285.0,258.7 L284.3,259.3 L284.7,260.0 L288.0,263.7 L289.0,264.3 L290.7,266.0 L291.0,266.3 L291.3,266.7 L292.0,267.3 L292.3,267.7 L292.7,268.0 L294.7,270.0 L295.0,270.3 L295.3,270.7 L298.0,273.7 L308.0,283.3 L308.3,283.7 L312.3,287.0 L312.7,287.3 L314.7,289.7 L318.3,292.7 L321.0,295.7 L322.7,296.7 L327.7,301.7 L329.3,302.7 L331.0,304.7 L334.3,307.7 L337.0,310.0 L338.7,311.0 L339.0,311.3 L339.3,311.7 L340.3,312.7 L343.0,315.7 L345.3,317.7 L346.3,318.0 L350.3,321.7 L351.0,322.7 L352.7,323.7 L354.0,325.3 L353.7,326.0 L353.0,326.7 L352.3,327.0 L351.0,327.0 L349.7,328.0 L348.7,328.0 L348.0,328.7 L347.3,329.0 L346.0,329.0 L345.3,329.7 L344.7,330.0 L343.0,330.0 L342.0,330.7 L341.0,331.0 L338.7,331.0 L337.7,331.7 L336.7,332.0 L333.3,332.0 L332.3,332.7 L331.3,333.0 L323.7,333.0 L322.3,333.7 L321.3,333.7 L320.7,333.3 L318.7,331.3 L318.3,330.0 L316.7,327.0 L315.7,326.0 L315.7,325.3 L314.7,324.3 L313.0,321.7 L312.7,320.3 L310.7,318.0 L310.7,317.3 L310.0,316.7 L309.7,315.3 L308.7,314.3 L308.7,313.7 L307.7,312.0 L305.0,308.0 L303.7,305.7 L303.7,305.0 L302.7,304.0 L302.7,303.3 L301.0,301.3 L300.7,300.0 L299.7,299.0 L299.7,298.3 L298.7,297.3 L298.7,296.7 L297.0,294.3 L296.7,293.0 L295.7,292.0 L295.7,291.3 L294.7,290.3 L294.7,289.7 L293.0,287.3 L292.7,286.0 L291.7,285.0 L291.7,284.3 L290.7,283.3 L290.7,282.7 L289.0,280.7 L287.0,277.3 L286.0,275.7 L285.7,274.3 L284.7,273.3 L283.7,271.0 L282.7,269.3 L281.7,268.3 L281.7,267.3 L280.0,265.3 L279.0,263.7 L278.7,263.0 L278.7,262.3 L276.7,259.0 L275.0,258.3 L275.0,259.3 L276.0,261.3 L277.0,263.3 L278.0,264.3 L278.0,265.3 L278.7,266.3 L279.0,267.3 L280.0,268.3 L280.0,269.3 L280.7,270.3 L281.0,271.3 L282.0,272.3 L282.0,273.3 L283.0,274.3 L283.0,275.3 L284.0,276.3 L284.0,277.3 L285.0,278.3 L285.0,279.3 L286.0,280.3 L286.0,281.3 L287.0,282.3 L287.0,283.3 L288.0,284.3 L288.0,285.3 L289.0,286.3 L289.3,287.3 L290.0,288.3 L290.0,289.3 L291.0,290.3 L291.0,291.3 L292.0,292.3 L292.0,293.3 L293.0,294.3 L293.0,295.3 L294.0,296.3 L294.0,297.3 L295.0,298.3 L295.0,299.3 L296.0,300.3 L296.0,301.3 L297.0,302.3 L297.0,303.3 L297.7,304.3 L298.0,305.3 L299.0,306.3 L299.0,307.3 L300.0,308.3 L300.0,309.0 L300.7,309.7 L301.0,310.3 L301.0,311.0 L301.3,311.7 L302.0,312.3 L302.0,313.0 L302.7,313.7 L303.0,315.0 L303.7,315.7 L304.0,316.3 L304.0,317.3 L305.0,318.3 L305.0,319.0 L306.7,321.7 L308.0,325.0 L310.0,328.0 L310.0,328.7 L310.7,329.3 L311.0,330.0 L311.0,330.7 L312.0,332.0 L312.0,333.3 L311.3,334.0 L302.3,333.7 L298.7,334.0 L297.3,334.0 L279.3,334.0 L273.3,334.0 L272.7,333.3 L272.7,327.0 L271.7,323.3 L271.7,308.3 L271.0,306.7 L270.7,304.0 L270.7,293.3 L270.0,291.7 L269.7,289.7 L269.7,277.0 L268.7,269.7 L268.7,260.7 L268.0,258.0 L267.0,258.0 L266.7,283.0 L266.7,285.0 L266.7,288.3 L267.0,297.7 L266.3,308.0 L266.3,310.0 L266.3,310.7 L266.3,321.3 L266.7,327.7 L266.7,329.7 L266.3,332.7 L265.0,334.0 L263.7,334.0 L234.0,334.0 L233.3,334.0 L232.3,333.0 L232.3,332.3 L232.7,330.3 L233.0,329.7 L233.7,329.0 L233.7,328.0 L234.7,326.7 L234.7,325.3 L235.0,324.7 L235.7,324.0 L235.7,323.0 L236.7,321.3 L236.7,320.0 L237.7,318.7 L237.7,317.0 L238.7,315.7 L238.7,314.7 L239.7,313.3 L239.7,312.0 L240.7,310.3 L240.7,309.3 L241.7,307.7 L241.7,306.7 L242.0,305.7 L242.7,305.0 L242.7,303.7 L243.7,302.3 L243.7,301.0 L244.7,299.7 L244.7,298.3 L245.3,297.7 L245.7,297.0 L245.7,295.7 L246.0,295.0 L246.7,294.3 L246.7,293.3 L247.7,291.7 L247.7,290.3 L248.7,289.0 L248.7,287.3 L249.7,286.3 L249.7,285.0 L250.7,283.3 L250.7,282.0 L251.0,281.3 L251.7,280.7 L251.7,279.3 L252.3,278.7 L252.7,278.0 L252.7,276.7 L253.7,275.3 L253.7,274.0 L254.7,272.7 L254.7,271.3 L255.7,269.7 L255.7,268.7 L256.0,268.0 L256.7,267.3 L256.7,266.3 L257.7,265.0 L257.7,263.7 L258.0,263.0 L258.7,262.3 L258.7,261.3 L259.7,259.7 L259.7,258.0 L258.3,258.3 L258.0,259.0 L258.0,260.0 L257.7,260.7 L257.0,261.3 L257.0,262.3 L255.0,267.0 L254.0,268.3 L254.0,269.0 L253.7,269.7 L253.0,270.3 L252.0,272.3 L251.0,274.3 L251.0,275.3 L250.0,276.7 L250.0,277.7 L249.7,278.3 L249.0,279.0 L249.0,280.0 L248.0,281.0 L248.0,282.3 L247.0,283.3 L247.0,284.3 L246.0,285.7 L245.0,288.7 L244.7,289.3 L244.0,290.0 L243.0,292.0 L243.0,293.0 L242.7,293.7 L242.0,294.3 L241.0,296.3 L241.0,297.3 L240.0,299.7 L239.0,301.0 L239.0,302.0 L238.7,302.7 L238.0,303.3 L238.0,304.3 L237.0,305.7 L237.0,306.3 L236.7,307.0 L236.0,307.7 L235.0,309.7 L235.0,310.7 L234.0,312.0 L234.0,312.7 L233.0,314.0 L233.0,315.0 L232.0,316.3 L232.0,317.3 L231.7,318.0 L231.0,318.7 L231.0,319.3 L230.3,320.0 L230.0,320.7 L230.0,321.7 L229.7,322.3 L229.0,323.0 L228.0,325.0 L228.0,326.0 L227.7,326.7 L227.0,327.3 L227.0,328.3 L226.0,329.3 L226.0,330.3 L225.7,331.0 L225.0,331.7 L225.0,332.3 L224.0,333.3 L223.3,333.7 L216.0,333.7 L211.7,333.0 L200.7,333.0 L199.7,332.0 L199.7,320.3 L200.7,319.3 L201.0,318.3 L202.7,316.7 L204.0,314.7 L205.7,312.7 L209.7,308.3 L211.3,306.3 L212.7,304.3 L213.7,303.7 L214.7,302.0 L216.0,300.7 L217.7,298.7 L218.7,297.0 L221.0,294.3 L223.7,291.3 L224.7,290.7 L226.7,288.3 L228.7,285.3 L230.7,283.3 L231.7,281.7 L232.7,280.3 L235.7,277.3 L236.7,275.7 L238.7,273.3 L239.7,272.7 L242.7,269.3 L243.7,267.7 L245.7,265.3 L246.7,264.7 L247.7,263.3 L248.0,262.3 L249.7,260.7 L250.7,259.3 L250.3,258.0 L248.3,258.0 L247.0,259.0 L232.7,273.0 L230.0,276.3 L228.3,278.0 L226.7,279.3 L225.7,279.0 L225.7,164.3 L226.0,163.3 L226.7,162.3 L226.7,159.0 L227.0,158.0 L227.7,157.0 L227.7,155.3 L228.7,153.7 L228.7,152.7 L229.7,151.7 L229.7,150.7 L230.7,149.7 L231.0,148.3 L232.0,146.7 L232.7,145.7 L233.7,144.3 L235.7,142.0 L238.3,139.7 L240.0,137.7 L241.0,136.7 L242.3,135.7 L243.7,134.7 L244.3,134.7 L245.3,133.7 L246.0,133.7 L247.0,132.7 L248.0,132.7 L250.0,131.7 L250.7,131.0 L251.3,130.7 L252.7,130.7 L254.0,129.7 L255.0,129.7 L256.7,128.7 L260.0,128.7 L261.0,128.0 Z M278.7,68.0 L278.0,68.7 L278.3,77.7 L324.3,77.7 L326.7,78.0 L328.3,78.7 L333.0,78.7 L334.3,79.0 L335.7,79.7 L338.0,79.7 L340.0,80.7 L342.7,80.7 L343.7,81.0 L344.3,81.7 L345.7,81.7 L346.3,82.0 L347.0,82.7 L349.0,83.7 L350.3,84.0 L351.0,84.7 L351.7,84.7 L352.7,85.7 L353.7,85.7 L354.3,86.0 L355.3,86.7 L358.0,88.7 L359.3,89.7 L360.0,90.7 L364.0,94.3 L365.7,96.3 L366.0,97.3 L367.3,98.7 L368.0,99.3 L368.0,100.3 L369.7,102.3 L370.0,103.0 L370.0,103.7 L371.0,105.7 L371.7,106.3 L372.0,107.0 L372.0,108.0 L372.7,108.7 L373.0,109.3 L373.0,110.3 L374.0,112.0 L374.0,114.3 L374.7,115.3 L375.0,116.3 L375.0,118.7 L376.0,121.0 L376.0,125.3 L376.7,126.3 L377.0,128.0 L377.0,137.7 L377.3,138.3 L377.7,138.7 L378.3,139.0 L384.3,139.0 L385.0,138.7 L385.7,137.3 L385.7,133.3 L385.7,121.7 L385.3,114.0 L385.7,111.0 L385.0,89.3 L385.0,85.3 L385.3,69.3 L385.0,68.7 L384.3,68.0 Z"/>
</g>
<line x1="100" y1="380" x2="404" y2="380" stroke="#B8944F" stroke-width="0.7" opacity="0.5"/>
<text x="252" y="422" text-anchor="middle"
  font-family="Georgia,'Times New Roman',serif"
  font-size="36" letter-spacing="12" fill="url(#tg)">THE EDIT</text>
<text x="252" y="458" text-anchor="middle"
  font-family="Georgia,'Times New Roman',serif"
  font-size="13" letter-spacing="7" fill="url(#tg)" opacity="0.78">MARBELLA</text>
</svg>
